# xmcd
#
# Track frame offsets:
#	150
#	15099
#	32916
#	44480
#	64290
#	78659
#	95661
#	110064
#	125692
#	144690
#	163300
#	179904
#	196058
#	218995
#	236520
#	257230
#	271692
#	293516
#
# Disc length: 4116 seconds
#
# Revision: 0
# Processed by: cddbd v1.5.2PL0 Copyright (c) Steve Scherf et al.
# Submitted via: audiograbber 1.83.01
#
DISCID=14101212
DTITLE=Various Artist - Ja te miluji
DYEAR=1900
DGENRE=
TTITLE0=No Name - Cim to je?!
TTITLE1=Aneta Langerova - Voda ziva
TTITLE2=Mirosla Zbirka and Im Fruhling - Nekdy staci dat jen dech
TTITLE3=Chinaski - Laskopad
TTITLE4=Jana Kirschner - Liska
TTITLE5=Richard Muller - Uz asi nie si
TTITLE6=Petr Hapka - Kocour se schoulil na tvuj klin
TTITLE7=Anna K. - Posledni stesti
TTITLE8=Pavol Habera - Jedina
TTITLE9=Maya - Neni svatozar
TTITLE10=Petr Kolar - Jeste ze te,lasko,mam
TTITLE11=Helena Zetova - Every day
TTITLE12=Elan - Laska moja
TTITLE13=Peha - Za tebou
TTITLE14=Krystof - Zrcadleni
TTITLE15=5 and Radecek - Dik
TTITLE16=Dan Barta and Alice - A to te trochu boli
TTITLE17=Petr Kolar and Leona Machalkova - Den kdy se vrati laska
EXTD=
EXTT0=
EXTT1=
EXTT2=
EXTT3=
EXTT4=
EXTT5=
EXTT6=
EXTT7=
EXTT8=
EXTT9=
EXTT10=
EXTT11=
EXTT12=
EXTT13=
EXTT14=
EXTT15=
EXTT16=
EXTT17=
PLAYORDER=
